# Blender v3.0.0 OBJ File: ''
# www.blender.org
mtllib tetrahedron.mtl
o Cube
v 0.500000 0.500000 -0.500000
v -0.500000 0.500000 0.500000
v 0.500000 -0.500000 0.500000
v -0.500000 -0.500000 -0.500000
vt 0.375000 0.250000
vt 0.375000 0.500000
vt 0.375000 0.750000
vt 0.625000 0.500000
vt 0.625000 0.750000
vt 0.625000 0.250000
vt 0.625000 0.000000
vn 0.5774 -0.5774 -0.5774
vn 0.5774 0.5774 0.5774
vn -0.5774 0.5774 -0.5774
vn -0.5774 -0.5774 0.5774
usemtl Material
s off
f 4/1/1 1/2/1 3/3/1
f 1/4/2 2/5/2 3/3/2
f 4/1/3 2/6/3 1/2/3
f 2/7/4 4/1/4 3/3/4
